<svg xmlns="http://www.w3.org/2000/svg" viewBox="0 0 64 64" role="img" aria-label="Interview Flow icon">
  <rect x="3" y="3" width="58" height="58" rx="16" fill="#f8fafc"/>

  <path
    d="M40 10
       C50.5 10 58 17.2 58 26.8
       C58 31.8 55.8 36.1 52.1 39.1
       L54.4 45.2
       C54.8 46.2 53.7 47.1 52.7 46.6
       L45.5 42.6
       C43.8 43.1 41.9 43.4 40 43.4
       C29.5 43.4 22 36.2 22 26.8
       C22 17.2 29.5 10 40 10 Z"
    fill="#ec4899"
    stroke="#0f172a"
    stroke-width="3.2"
    stroke-linejoin="round"
  />
  <path
    d="M24.5 22.5
       C35 22.5 42.5 29.7 42.5 39.3
       C42.5 48.9 35 56 24.5 56
       C22.7 56 20.9 55.8 19.2 55.3
       L12.1 59.4
       C11.1 59.9 10 59 10.4 58
       L12.7 51.9
       C9 48.9 6.8 44.5 6.8 39.3
       C6.8 29.7 14.1 22.5 24.5 22.5 Z"
    fill="#22d3ee"
    stroke="#0f172a"
    stroke-width="3.2"
    stroke-linejoin="round"
  />
</svg>
